<?xml version="1.0" standalone="no"?>
<!DOCTYPE svg PUBLIC "-//W3C//DTD SVG 20010904//EN"
 "http://www.w3.org/TR/2001/REC-SVG-20010904/DTD/svg10.dtd">
<svg version="1.0" xmlns="http://www.w3.org/2000/svg"
 width="656.000000pt" height="656.000000pt" viewBox="0 0 656.000000 656.000000"
 preserveAspectRatio="xMidYMid meet">
<metadata>
Created by potrace 1.14, written by Peter Selinger 2001-2017
</metadata>
<g transform="translate(0.000000,656.000000) scale(0.100000,-0.100000)"
fill="#000000" stroke="none">
<path d="M5195 5516 c-150 -155 -331 -339 -400 -411 -70 -71 -209 -214 -308
-316 -243 -248 -740 -758 -852 -874 -49 -50 -223 -228 -385 -395 -162 -166
-359 -368 -437 -449 -79 -80 -178 -182 -222 -226 -102 -103 -125 -107 -203
-33 -19 18 -99 94 -177 168 -79 74 -169 160 -201 190 -32 30 -95 90 -141 134
-46 43 -142 133 -212 200 -71 66 -155 146 -187 176 -32 30 -124 118 -205 195
-159 152 -205 183 -239 159 -12 -8 -225 -218 -474 -466 -431 -431 -452 -454
-452 -489 0 -34 14 -50 251 -280 138 -134 308 -300 379 -369 71 -69 240 -233
375 -365 136 -132 296 -287 355 -345 59 -58 228 -222 375 -365 147 -143 320
-312 385 -375 65 -63 142 -138 173 -167 88 -83 78 -88 367 206 135 138 400
409 590 602 440 449 497 507 835 851 154 157 440 448 635 648 195 199 429 437
520 530 91 92 320 326 510 520 190 193 400 407 466 475 67 67 129 133 138 146
37 54 31 64 -201 294 -768 761 -716 712 -751 712 -30 -1 -58 -27 -307 -281z"/>
</g>
</svg>
