<?xml version="1.0" standalone="no"?>
<!DOCTYPE svg PUBLIC "-//W3C//DTD SVG 20010904//EN"
 "http://www.w3.org/TR/2001/REC-SVG-20010904/DTD/svg10.dtd">
<svg version="1.0" xmlns="http://www.w3.org/2000/svg"
 width="512.000000pt" height="512.000000pt" viewBox="0 0 512.000000 512.000000"
 preserveAspectRatio="xMidYMid meet">
<metadata>
Created by potrace 1.14, written by Peter Selinger 2001-2017
</metadata>
<g transform="translate(0.000000,512.000000) scale(0.100000,-0.100000)"
fill="#000000" stroke="none">
<path d="M2659 5057 c-152 -57 -224 -202 -173 -350 9 -26 35 -68 58 -94 l43
-47 -19 -50 c-11 -28 -23 -54 -26 -57 -4 -4 -45 -10 -92 -13 -85 -6 -143 -13
-190 -21 -14 -3 -41 -8 -60 -11 l-35 -5 -82 121 c-80 119 -81 122 -63 140 39
39 54 83 54 155 0 100 -41 166 -129 206 -74 34 -128 26 -318 -47 -95 -36 -189
-76 -209 -89 -54 -36 -91 -105 -94 -177 -6 -135 91 -236 232 -241 l49 -2 21
-138 20 -138 -35 -21 c-43 -26 -220 -156 -241 -178 -9 -8 -41 -39 -71 -68
l-55 -53 -75 32 c-41 17 -77 34 -81 38 -4 3 -10 30 -13 60 -7 65 -25 101 -68
143 -81 78 -213 81 -298 6 -36 -32 -176 -218 -188 -251 -66 -172 80 -342 259
-302 19 4 44 14 56 22 20 13 24 10 65 -39 24 -29 50 -58 58 -64 12 -9 7 -26
-28 -100 -24 -49 -50 -107 -58 -129 -8 -22 -19 -49 -23 -60 -22 -51 -64 -210
-74 -276 -9 -62 -10 -63 -149 -93 -72 -16 -136 -30 -142 -32 -5 -2 -21 15 -35
37 -62 101 -198 141 -305 89 -54 -26 -109 -88 -128 -144 -17 -51 -23 -377 -7
-436 35 -129 179 -204 311 -162 62 20 134 88 150 143 10 32 16 38 33 34 12 -3
72 -17 135 -31 127 -28 131 -29 131 -49 0 -41 25 -118 43 -135 43 -41 119 -12
120 46 1 25 -7 81 -18 134 -2 8 -4 23 -4 32 -1 9 -12 30 -26 46 -22 27 -58 42
-140 58 -20 4 -49 10 -83 18 -167 39 -243 56 -255 56 -36 0 -60 -36 -68 -99
-11 -93 -59 -134 -131 -109 -51 18 -59 51 -57 226 2 206 17 242 101 244 39 1
88 -49 88 -90 1 -67 52 -88 152 -63 40 11 138 34 217 52 121 28 148 38 172 62
16 16 29 38 29 49 0 40 40 215 71 308 17 52 57 149 90 215 32 66 59 133 59
148 0 27 -15 66 -30 77 -3 3 -46 52 -95 110 -123 147 -139 154 -209 90 -49
-46 -91 -53 -121 -20 -34 37 -22 75 57 178 40 53 84 102 97 108 30 15 59 5 85
-29 18 -24 18 -30 6 -68 -28 -83 -15 -101 110 -152 47 -19 111 -47 142 -61 94
-43 121 -36 214 60 75 77 168 152 281 227 57 38 109 78 118 90 19 27 19 59 1
167 -15 87 -23 141 -32 220 -10 81 -24 120 -50 137 -23 14 -31 15 -67 4 -104
-32 -149 -21 -162 39 -9 39 14 75 58 95 106 47 295 115 319 115 37 0 78 -40
78 -75 0 -25 -11 -38 -87 -105 -30 -25 -30 -67 0 -107 12 -17 28 -39 35 -50
145 -212 208 -296 231 -305 19 -8 48 -6 111 6 114 22 139 26 250 31 181 10
183 12 242 177 57 157 54 179 -24 219 -75 38 -90 120 -34 185 l34 39 86 -2
c138 -3 197 -41 199 -129 1 -51 -24 -88 -77 -112 -64 -30 -69 -41 -62 -119 4
-38 8 -79 10 -93 3 -14 7 -51 11 -84 8 -70 32 -99 96 -116 121 -30 275 -86
370 -134 121 -61 149 -69 181 -57 20 7 94 65 303 235 66 54 74 66 75 100 0 22
-12 40 -49 75 -57 54 -64 70 -50 111 13 35 35 50 76 50 36 0 302 -206 320
-248 16 -39 -5 -86 -45 -100 -25 -8 -39 -6 -79 12 -52 24 -75 25 -100 4 -14
-11 -56 -94 -133 -263 -12 -27 -33 -73 -46 -102 -36 -77 -32 -106 19 -160 35
-37 50 -46 75 -45 40 1 49 6 67 41 13 26 12 32 -5 66 l-19 37 58 126 57 127
70 1 c139 2 234 91 237 224 2 79 -31 140 -109 203 -160 131 -263 205 -299 217
-149 49 -297 -57 -299 -215 0 -57 9 -86 45 -143 10 -16 11 -25 3 -30 -7 -4
-32 -23 -55 -43 -24 -20 -69 -57 -99 -81 l-55 -45 -79 40 c-92 45 -257 108
-333 126 l-51 13 -7 69 -7 70 45 42 c24 23 54 60 65 82 75 150 -7 331 -173
381 -71 21 -222 27 -266 11z"/>
<path d="M2665 3925 c-14 -13 -25 -36 -25 -50 0 -14 11 -37 25 -50 21 -22 33
-25 98 -25 64 0 76 3 95 23 29 31 28 72 -3 102 -21 22 -33 25 -95 25 -62 0
-74 -3 -95 -25z"/>
<path d="M1930 3799 c-162 -41 -308 -147 -400 -291 -229 -354 -26 -768 378
-770 80 0 117 6 199 33 93 30 127 57 131 101 6 71 -52 96 -133 59 -146 -66
-326 -50 -422 37 -241 218 -7 668 363 699 245 20 406 -171 344 -409 -9 -36
-27 -82 -39 -101 -29 -48 -28 -90 5 -116 53 -42 93 -22 138 67 73 144 80 320
18 450 -39 83 -121 166 -206 207 -119 59 -236 69 -376 34z"/>
<path d="M4533 3769 c-106 -20 -191 -108 -209 -217 -6 -36 -9 -40 -43 -46 -87
-14 -97 -10 -130 49 -45 79 -96 98 -139 52 -33 -35 -27 -66 28 -160 66 -112
70 -114 241 -92 141 18 172 26 186 47 4 7 8 46 8 85 0 64 3 75 25 98 39 38 80
46 127 25 42 -19 53 -35 97 -154 40 -105 32 -166 -25 -197 -55 -29 -98 -19
-153 35 -23 24 -45 36 -63 36 -35 0 -249 -144 -274 -184 -19 -31 -19 -39 10
-176 30 -143 32 -163 36 -323 4 -122 7 -151 22 -171 19 -26 417 -206 454 -206
31 0 66 46 73 94 12 75 71 115 122 82 48 -32 49 -49 14 -232 -34 -179 -46
-209 -87 -225 -57 -22 -103 21 -103 96 0 42 -5 56 -24 74 -26 24 -36 25 -414
6 -100 -5 -115 -18 -166 -146 -37 -92 -65 -152 -120 -254 -19 -36 -20 -68 -4
-98 14 -28 207 -257 216 -258 4 0 16 -2 27 -4 11 -2 38 7 59 22 89 58 186 11
186 -91 0 -37 -62 -128 -107 -158 -50 -32 -111 -20 -148 30 -15 20 -19 40 -17
88 3 78 -9 92 -108 134 -41 18 -99 43 -129 57 -109 49 -136 45 -211 -32 -80
-81 -189 -171 -298 -245 -57 -38 -102 -77 -110 -93 -13 -28 -5 -95 54 -442 13
-74 55 -96 132 -67 60 23 90 19 120 -15 27 -30 24 -76 -6 -104 -23 -22 -320
-139 -352 -139 -36 0 -67 25 -75 59 -8 39 7 66 55 96 44 28 59 63 42 100 -20
43 -254 365 -273 375 -28 15 -75 14 -149 -4 -102 -24 -183 -31 -355 -31 -149
0 -211 5 -325 24 -79 13 -99 -5 -239 -226 -69 -108 -126 -206 -129 -219 -6
-32 14 -61 57 -83 65 -33 81 -74 66 -164 -8 -53 -26 -77 -56 -77 -11 0 -94 28
-185 61 -138 52 -169 67 -189 94 -38 49 -34 98 10 142 l36 36 72 -7 c65 -6 75
-4 95 14 12 12 22 26 23 33 0 7 2 19 3 27 2 8 6 44 10 80 13 123 17 155 21
175 2 11 7 63 11 115 6 94 6 96 -21 128 -15 18 -31 32 -36 32 -17 0 -189 111
-262 169 -40 32 -108 92 -151 134 -79 76 -87 81 -134 79 -21 -1 -152 -51 -267
-102 -22 -10 -57 -24 -79 -31 -48 -17 -86 -52 -86 -78 0 -11 5 -32 11 -48 31
-81 -47 -156 -121 -118 -34 17 -137 162 -145 202 -18 95 90 140 165 68 16 -16
38 -25 57 -25 27 0 44 14 120 98 210 232 213 237 208 283 -4 39 -95 218 -116
229 -50 27 -109 -5 -109 -61 0 -16 13 -57 30 -91 16 -33 30 -66 30 -73 0 -7
-38 -56 -85 -109 l-85 -95 -32 14 c-150 62 -318 -38 -335 -198 -7 -72 7 -110
80 -220 96 -144 149 -181 257 -181 131 1 221 84 238 220 l7 56 60 24 c33 13
69 28 80 33 11 6 41 18 66 29 l45 19 75 -70 c87 -84 202 -170 311 -235 77 -46
78 -48 73 -82 -9 -64 -14 -114 -20 -185 -8 -87 -13 -107 -28 -102 -7 2 -34 -2
-61 -10 -129 -38 -205 -146 -193 -273 9 -107 71 -190 169 -228 246 -96 314
-117 379 -117 54 0 72 5 106 27 45 30 79 78 87 123 3 17 9 50 14 75 15 81 -8
166 -60 226 -17 19 -28 40 -25 48 5 13 88 145 144 227 26 39 22 39 139 20 32
-5 133 -9 224 -9 145 0 222 7 360 32 19 4 42 8 52 9 11 1 45 -39 101 -117 85
-118 85 -118 65 -138 -45 -45 -65 -135 -47 -210 14 -60 74 -130 131 -152 77
-32 120 -24 320 54 162 65 188 78 228 119 52 53 69 99 66 174 -6 123 -115 220
-239 212 -38 -2 -47 1 -48 14 0 9 -2 25 -5 36 -2 11 -6 40 -10 65 -3 25 -8 47
-9 50 -2 3 -6 30 -10 60 l-6 55 58 37 c79 51 186 137 259 209 l62 60 73 -30
c100 -42 101 -43 106 -92 14 -126 130 -229 259 -229 92 0 169 46 241 143 58
79 73 117 74 186 4 185 -189 317 -361 247 -11 -5 -33 14 -72 62 l-57 69 34 64
c18 35 48 100 65 144 18 44 34 82 35 83 4 4 44 7 212 16 l82 4 12 -36 c28 -88
112 -153 202 -157 61 -2 99 9 148 44 62 44 91 104 113 236 7 40 14 80 27 140
17 82 22 133 15 169 -10 52 -63 123 -115 154 -110 64 -270 13 -323 -104 -10
-20 -12 -20 -139 35 l-129 56 -1 45 c-2 161 -27 365 -54 450 -4 12 10 27 51
54 l57 38 51 -25 c71 -36 132 -43 198 -23 122 35 191 132 191 267 0 58 -79
260 -120 308 -62 74 -156 107 -250 90z"/>
<path d="M3257 3758 c-93 -20 -182 -90 -217 -170 -77 -179 61 -371 276 -382
182 -9 327 98 341 251 10 107 -32 191 -123 251 -76 51 -184 71 -277 50z m185
-170 c90 -51 91 -155 1 -205 -80 -45 -180 -35 -238 23 -121 121 76 272 237
182z"/>
<path d="M2959 2845 c-47 -26 -56 -87 -17 -121 14 -14 36 -18 85 -18 56 -1 67
2 84 23 10 13 19 36 19 52 0 29 -29 68 -52 70 -71 5 -100 3 -119 -6z"/>
<path d="M1385 2632 c-57 -10 -71 -105 -19 -132 33 -18 127 -18 149 0 40 34
36 112 -7 126 -24 7 -95 11 -123 6z"/>
<path d="M3451 2599 c-83 -16 -164 -81 -200 -164 -19 -45 -22 -139 -5 -189 53
-156 256 -228 394 -141 76 48 130 144 130 230 0 163 -156 293 -319 264z m126
-177 c107 -99 -16 -260 -141 -183 -45 28 -57 62 -47 136 2 15 44 61 61 68 8 3
33 6 55 6 31 1 48 -6 72 -27z"/>
<path d="M2337 2521 c-180 -60 -280 -255 -222 -433 31 -93 93 -164 181 -204
178 -83 375 -12 462 166 22 47 26 68 27 145 0 80 -3 96 -28 145 -84 160 -257
235 -420 181z m207 -161 c73 -45 112 -146 86 -225 -45 -136 -222 -180 -322
-80 -100 100 -64 272 69 321 49 18 124 11 167 -16z"/>
<path d="M1530 2101 c-168 -51 -247 -238 -165 -389 47 -87 119 -133 217 -140
83 -6 143 14 200 66 91 82 117 208 64 317 -58 118 -197 182 -316 146z m126
-157 c86 -41 87 -166 3 -210 -47 -24 -94 -18 -133 16 -64 56 -56 146 17 190
39 24 68 25 113 4z"/>
<path d="M3289 1782 c-26 -3 -59 -46 -59 -75 0 -9 10 -28 23 -43 20 -23 31
-27 88 -29 73 -2 115 9 129 35 15 28 12 65 -8 90 -15 18 -29 22 -82 24 -36 1
-77 0 -91 -2z"/>
<path d="M2710 1641 c-86 -27 -151 -93 -176 -177 -50 -173 69 -335 245 -337
279 -3 371 376 120 496 -53 25 -140 33 -189 18z m122 -152 c90 -41 79 -174
-16 -206 -51 -17 -108 5 -130 52 -20 42 -20 59 0 101 26 55 91 79 146 53z"/>
<path d="M2051 1514 c-28 -35 -26 -69 4 -99 19 -20 34 -25 75 -25 47 0 109 21
111 38 0 4 3 19 5 35 3 20 -2 34 -20 52 -22 22 -34 25 -90 25 -58 0 -67 -3
-85 -26z"/>
</g>
</svg>
